<?xml version="1.0" encoding="utf-8"?>
<!-- Generator: Adobe Illustrator 24.3.0, SVG Export Plug-In . SVG Version: 6.00 Build 0)  -->
<svg version="1.1" id="katman_1" xmlns="http://www.w3.org/2000/svg" xmlns:xlink="http://www.w3.org/1999/xlink" x="0px" y="0px"
	 viewBox="0 0 2500 1699" style="enable-background:new 0 0 2500 1699;" xml:space="preserve">
<style type="text/css">
	.st0{fill:#00979C;}
</style>
<g>
	<path class="st0" d="M348,1193.1L244,1532.4h81.8l18.8-63.2h101.4l18.3,63.2h88.9l-103.9-339.2H348z M365.1,1400.9l30.9-105.5
		l30.5,105.5H365.1z M748.5,1377.6c-1.2-1.3-2.5-2.5-3.8-3.7c2.6-1,5.1-2,7.5-3.1c9.6-4.4,18.4-10.5,25.8-18.1
		c7.4-7.7,13.2-16.8,17-26.8c4-10.2,6-21.9,6-34.8c0-17.8-3.2-33.1-9.5-45.7c-6.3-12.6-15.7-23.3-27.4-31.1
		c-11.5-7.7-25.4-13.2-41.4-16.5c-15.4-3.1-32.8-4.7-51.6-4.7H565v339.2h81.4v-132.6h2.4c8.9,0,16.3,2,22.7,6
		c6.3,4,11.1,9.9,14.8,18.1l49.2,108.5h94.7l-59.7-121C763.1,1396.6,756,1385.6,748.5,1377.6L748.5,1377.6z M713.1,1312.5
		c-2.4,4.5-5.8,8.4-10,11.2c-4.6,3.2-10.3,5.7-17,7.4c-7.1,1.8-15.1,2.7-23.9,2.7h-15.9v-71.4h17.9c18.6,0,32.5,2.9,41.1,8.7
		c7.6,5,11.2,13.5,11.2,25.9C716.6,1302.9,715.5,1308,713.1,1312.5L713.1,1312.5z M1068.5,1233.4c-13.7-13.8-31-24.1-51.4-30.6
		c-19.9-6.4-43.2-9.7-69.5-9.7H840.1v339.2h93.7c30.2,0,56.7-4.1,78.6-12.2c22.3-8.2,40.8-20.2,55.2-35.5
		c14.4-15.3,25.1-34,31.8-55.5c6.6-21.1,9.9-44.8,9.9-70.5c0-28-3.3-52.5-10-73C1092.5,1264.8,1082.2,1247.2,1068.5,1233.4z
		 M1002,1439.6c-14.1,15.7-34.6,23.3-62.7,23.3h-17.9v-200.3h22.2c15.7,0,28.9,2.2,39.1,6.6c10,4.2,17.7,10.2,23.6,18.3
		c6,8.3,10.4,18.6,13,30.8c2.7,12.9,4.1,27.8,4.1,44.3C1023.4,1397.9,1016.2,1423.8,1002,1439.6L1002,1439.6z M1305.3,1408.9
		c0,11.7-1.1,21.7-3.2,29.6c-2,7.4-4.9,13.5-8.7,18c-3.6,4.3-8.3,7.6-13.7,9.4c-6,2.2-13.7,3.2-22.9,3.2c-9.7,0-17.7-1.2-23.8-3.7
		c-5.6-2.2-10.5-5.8-14.4-10.4c-3.8-4.6-6.6-10.4-8.2-17.3c-1.8-7.6-2.7-16.5-2.7-26.5v-218.3h-81.4V1415c0,18.3,2.3,35.2,6.7,50
		c4.6,15.4,12.3,28.8,22.8,39.6c10.5,10.8,24.2,19.2,40.8,24.9c16.1,5.6,35.6,8.4,57.8,8.4c19.9,0,38.2-2.8,54.3-8.4
		c16.5-5.6,30.7-14.2,42.2-25.4c11.5-11.3,20.5-25.4,26.6-42.1c6-16.4,9.1-35.6,9.1-57.1v-211.9h-81.4L1305.3,1408.9 M1428.2,1261.4
		h73v202.3h-73v68.7h228.4v-68.7h-73v-202.3h73v-68.2h-228.4V1261.4 M1883,1386.4l-91-193.3H1700v339.2h75.8v-197l91.4,197h91.6
		v-339.2H1883L1883,1386.4 M2222.2,1233.2c-23.8-30.2-59.4-45.5-105.8-45.5c-19.9,0-38.8,3.5-56.3,10.5c-17.8,7-33.5,18-46.7,32.6
		c-13.1,14.5-23.5,33.1-30.9,55.3c-7.3,21.9-11,48.3-11,78.2c0,55.3,11.8,98.4,35,128c23.8,30.3,59.4,45.6,105.8,45.6
		c19.9,0,38.9-3.5,56.4-10.5c17.8-7,33.5-18,46.6-32.6c13.1-14.5,23.5-33.1,30.9-55.3c7.3-21.9,11-48.2,11-78.2
		C2257.2,1305.9,2245.4,1262.8,2222.2,1233.2L2222.2,1233.2z M2168.6,1409.5c-2.3,12.5-6,23.1-10.8,31.4
		c-4.6,7.9-10.3,13.7-17.4,17.7c-7.1,4-15.9,6-26.1,6c-20.3,0-34.5-7.6-43.3-23.1c-9.7-17.1-14.6-44-14.6-80.1
		c0-16.9,1.2-32.1,3.6-45.2c2.3-12.5,6-23,10.9-31.3c4.7-7.9,10.4-13.8,17.4-17.8c7-4,15.7-6,26-6c20.5,0,34.7,7.6,43.4,23.1
		c9.6,17.1,14.5,44.1,14.5,80.1C2172.3,1381.3,2171.1,1396.5,2168.6,1409.5L2168.6,1409.5z M2139.6,206h14.4v38h10.2v-38h14.6v-9.4
		h-39.2V206 M2214.5,196.6l-9.9,32.3l-10.2-32.3h-13.4V244h9.6v-30.3l9.5,30.3h8.8l9.1-29.5V244h9.6v-47.4H2214.5 M1743.4,1113.4
		c-129,0-239.2-43.5-336.3-132.4c-59.9-54.9-109.4-122.2-154.9-192.2c-45.5,70-94.9,137.3-154.8,192.2
		c-104.3,95.6-223.8,138.7-365.4,131.7c-270-1.2-489.3-214.3-489.3-476c0-262.5,220.5-476,491.6-476c148.3,0,273.2,49.1,381.7,150.1
		c52.1,48.5,96.1,104.8,136.3,163.6c40.1-58.9,84.2-115.1,136.3-163.6c108.5-101,233.4-150.1,381.7-150.1
		c271.1,0,491.6,213.6,491.6,476c0,261.8-219.3,474.9-489.3,476C1762.8,1113.1,1753.1,1113.4,1743.4,1113.4L1743.4,1113.4z
		 M1351,630.2c53.8,87.3,106,168.5,169.6,226.8c71.8,65.8,147.5,92.9,245.3,87.7l4.4-0.1c178.4,0,323.6-138.2,323.6-308
		c0-169.8-145.2-308-323.6-308C1665,328.6,1580,362,1503,433.6C1445.5,487.2,1397.9,555.7,1351,630.2L1351,630.2z M734.2,328.6
		c-178.4,0-323.6,138.2-323.6,308c0,169.8,145.2,308,323.6,308l4.4,0.1c97.8,5.2,173.5-21.9,245.3-87.7
		c63.6-58.3,115.8-139.5,169.6-226.8c-46.9-74.5-94.4-143.1-152-196.6C924.5,362,839.6,328.6,734.2,328.6L734.2,328.6z"/>
	<path class="st0" d="M1792.5,575.5v-91.1h-94.8v91.1h-91.1v94.4h91.1v91.8h94.8v-91.8h91.1v-94.4H1792.5 M597.8,574.4h299.4v97.3
		H597.8V574.4z"/>
</g>
</svg>
